<?xml version="1.0" encoding="UTF-8" standalone="no"?>
<!DOCTYPE svg PUBLIC "-//W3C//DTD SVG 1.1//EN"
 "http://www.w3.org/Graphics/SVG/1.1/DTD/svg11.dtd">
<!-- Generated by graphviz version 2.40.1 (20161225.0304)
 -->
<!-- Title: dependencies Pages: 1 -->
<svg width="553pt" height="284pt"
 viewBox="0.00 0.00 553.00 284.00" xmlns="http://www.w3.org/2000/svg" xmlns:xlink="http://www.w3.org/1999/xlink">
<g id="graph0" class="graph" transform="scale(1 1) rotate(0) translate(4 280)">
<title>dependencies</title>
<polygon fill="#ffffff" stroke="transparent" points="-4,4 -4,-280 549,-280 549,4 -4,4"/>
<text text-anchor="start" x="251.5091" y="-42.4" font-family="sans-serif" font-weight="bold" font-size="14.00" fill="#000000">Legend</text>
<polygon fill="#ffffb3" stroke="transparent" points="38.5,-10 38.5,-30 58.5,-30 58.5,-10 38.5,-10"/>
<text text-anchor="start" x="62.129" y="-15.4" font-family="sans-serif" font-size="14.00" fill="#000000"> &#160;Declarations</text>
<polygon fill="#8dd3c7" stroke="transparent" points="151.5,-10 151.5,-30 171.5,-30 171.5,-10 151.5,-10"/>
<text text-anchor="start" x="175.2251" y="-15.4" font-family="sans-serif" font-size="14.00" fill="#000000"> &#160;Module</text>
<polygon fill="#80b1d3" stroke="transparent" points="237.5,-10 237.5,-30 257.5,-30 257.5,-10 237.5,-10"/>
<text text-anchor="start" x="261.2812" y="-15.4" font-family="sans-serif" font-size="14.00" fill="#000000"> &#160;Bootstrap</text>
<polygon fill="#fdb462" stroke="transparent" points="334.5,-10 334.5,-30 354.5,-30 354.5,-10 334.5,-10"/>
<text text-anchor="start" x="358.1732" y="-15.4" font-family="sans-serif" font-size="14.00" fill="#000000"> &#160;Providers</text>
<polygon fill="#fb8072" stroke="transparent" points="430.5,-10 430.5,-30 450.5,-30 450.5,-10 430.5,-10"/>
<text text-anchor="start" x="454.2258" y="-15.4" font-family="sans-serif" font-size="14.00" fill="#000000"> &#160;Exports</text>
<g id="clust1" class="cluster">
<title>cluster_GalleryModalModule</title>
<polygon fill="none" stroke="#000000" stroke-dasharray="1,5" points="8,-70 8,-268 537,-268 537,-70 8,-70"/>
</g>
<g id="clust2" class="cluster">
<title>cluster_GalleryModalModule_declarations</title>
<polygon fill="none" stroke="#000000" points="25,-78 25,-130 523,-130 523,-78 25,-78"/>
</g>
<g id="clust8" class="cluster">
<title>cluster_GalleryModalModule_exports</title>
<polygon fill="none" stroke="#000000" points="16,-208 16,-260 529,-260 529,-208 16,-208"/>
</g>
<!-- FittedImage -->
<g id="node1" class="node">
<title>FittedImage</title>
<polygon fill="#ffffb3" stroke="#000000" points="514.6501,-122 431.3499,-122 431.3499,-86 514.6501,-86 514.6501,-122"/>
<text text-anchor="middle" x="473" y="-99.8" font-family="Times,serif" font-size="14.00" fill="#000000">FittedImage</text>
</g>
<!-- GalleryModalModule -->
<g id="node5" class="node">
<title>GalleryModalModule</title>
<polygon fill="#8dd3c7" stroke="#000000" points="312.0772,-187 309.0772,-191 288.0772,-191 285.0772,-187 173.9228,-187 173.9228,-151 312.0772,-151 312.0772,-187"/>
<text text-anchor="middle" x="243" y="-164.8" font-family="Times,serif" font-size="14.00" fill="#000000">GalleryModalModule</text>
</g>
<!-- FittedImage&#45;&gt;GalleryModalModule -->
<g id="edge1" class="edge">
<title>FittedImage&#45;&gt;GalleryModalModule</title>
<path fill="none" stroke="#000000" d="M487.6916,-122.0225C487.6916,-139.3734 487.6916,-163 487.6916,-163 487.6916,-163 322.1376,-163 322.1376,-163"/>
<polygon fill="#000000" stroke="#000000" points="322.1377,-159.5001 312.1376,-163 322.1376,-166.5001 322.1377,-159.5001"/>
</g>
<!-- ZoomableImage -->
<g id="node2" class="node">
<title>ZoomableImage</title>
<polygon fill="#ffffb3" stroke="#000000" points="412.7437,-122 305.2563,-122 305.2563,-86 412.7437,-86 412.7437,-122"/>
<text text-anchor="middle" x="359" y="-99.8" font-family="Times,serif" font-size="14.00" fill="#000000">ZoomableImage</text>
</g>
<!-- ZoomableImage&#45;&gt;GalleryModalModule -->
<g id="edge2" class="edge">
<title>ZoomableImage&#45;&gt;GalleryModalModule</title>
<path fill="none" stroke="#000000" d="M305.1943,-104C299.7619,-104 296.196,-104 296.196,-104 296.196,-104 296.196,-140.8939 296.196,-140.8939"/>
<polygon fill="#000000" stroke="#000000" points="292.6961,-140.8938 296.196,-150.8939 299.6961,-140.8939 292.6961,-140.8938"/>
</g>
<!-- GalleryModal -->
<g id="node3" class="node">
<title>GalleryModal</title>
<polygon fill="#ffffb3" stroke="#000000" points="287.0286,-122 192.9714,-122 192.9714,-86 287.0286,-86 287.0286,-122"/>
<text text-anchor="middle" x="240" y="-99.8" font-family="Times,serif" font-size="14.00" fill="#000000">GalleryModal</text>
</g>
<!-- GalleryModal&#45;&gt;GalleryModalModule -->
<g id="edge3" class="edge">
<title>GalleryModal&#45;&gt;GalleryModalModule</title>
<path fill="none" stroke="#000000" d="M240,-122.1061C240,-122.1061 240,-140.991 240,-140.991"/>
<polygon fill="#000000" stroke="#000000" points="236.5001,-140.9909 240,-150.991 243.5001,-140.991 236.5001,-140.9909"/>
</g>
<!-- TouchEventsDirective -->
<g id="node4" class="node">
<title>TouchEventsDirective</title>
<polygon fill="#ffffb3" stroke="#000000" points="174.9524,-122 33.0476,-122 33.0476,-86 174.9524,-86 174.9524,-122"/>
<text text-anchor="middle" x="104" y="-99.8" font-family="Times,serif" font-size="14.00" fill="#000000">TouchEventsDirective</text>
</g>
<!-- TouchEventsDirective&#45;&gt;GalleryModalModule -->
<g id="edge4" class="edge">
<title>TouchEventsDirective&#45;&gt;GalleryModalModule</title>
<path fill="none" stroke="#000000" d="M175.0051,-104C180.4335,-104 183.8563,-104 183.8563,-104 183.8563,-104 183.8563,-140.8939 183.8563,-140.8939"/>
<polygon fill="#000000" stroke="#000000" points="180.3563,-140.8938 183.8563,-150.8939 187.3563,-140.8939 180.3563,-140.8938"/>
</g>
<!-- FittedImage  -->
<g id="node6" class="node">
<title>FittedImage </title>
<polygon fill="#fb8072" stroke="#000000" points="520.6495,-252 433.3505,-252 433.3505,-216 520.6495,-216 520.6495,-252"/>
<text text-anchor="middle" x="477" y="-229.8" font-family="Times,serif" font-size="14.00" fill="#000000">FittedImage </text>
</g>
<!-- GalleryModalModule&#45;&gt;FittedImage  -->
<g id="edge5" class="edge">
<title>GalleryModalModule&#45;&gt;FittedImage </title>
<path fill="none" stroke="#000000" stroke-dasharray="5,2" d="M312.1358,-175C375.84,-175 460.5584,-175 460.5584,-175 460.5584,-175 460.5584,-205.9775 460.5584,-205.9775"/>
<polygon fill="#000000" stroke="#000000" points="457.0585,-205.9774 460.5584,-215.9775 464.0585,-205.9775 457.0585,-205.9774"/>
</g>
<!-- ZoomableImage  -->
<g id="node7" class="node">
<title>ZoomableImage </title>
<polygon fill="#fb8072" stroke="#000000" points="415.7437,-252 304.2563,-252 304.2563,-216 415.7437,-216 415.7437,-252"/>
<text text-anchor="middle" x="360" y="-229.8" font-family="Times,serif" font-size="14.00" fill="#000000">ZoomableImage </text>
</g>
<!-- GalleryModalModule&#45;&gt;ZoomableImage  -->
<g id="edge6" class="edge">
<title>GalleryModalModule&#45;&gt;ZoomableImage </title>
<path fill="none" stroke="#000000" stroke-dasharray="5,2" d="M308.2084,-187.1061C308.2084,-187.1061 308.2084,-205.991 308.2084,-205.991"/>
<polygon fill="#000000" stroke="#000000" points="304.7085,-205.9909 308.2084,-215.991 311.7085,-205.991 304.7085,-205.9909"/>
</g>
<!-- GalleryModal  -->
<g id="node8" class="node">
<title>GalleryModal </title>
<polygon fill="#fb8072" stroke="#000000" points="286.0274,-252 187.9726,-252 187.9726,-216 286.0274,-216 286.0274,-252"/>
<text text-anchor="middle" x="237" y="-229.8" font-family="Times,serif" font-size="14.00" fill="#000000">GalleryModal </text>
</g>
<!-- GalleryModalModule&#45;&gt;GalleryModal  -->
<g id="edge7" class="edge">
<title>GalleryModalModule&#45;&gt;GalleryModal </title>
<path fill="none" stroke="#000000" stroke-dasharray="5,2" d="M237,-187.1061C237,-187.1061 237,-205.991 237,-205.991"/>
<polygon fill="#000000" stroke="#000000" points="233.5001,-205.9909 237,-215.991 240.5001,-205.991 233.5001,-205.9909"/>
</g>
<!-- TouchEventsDirective  -->
<g id="node9" class="node">
<title>TouchEventsDirective </title>
<polygon fill="#fb8072" stroke="#000000" points="169.9531,-252 24.0469,-252 24.0469,-216 169.9531,-216 169.9531,-252"/>
<text text-anchor="middle" x="97" y="-229.8" font-family="Times,serif" font-size="14.00" fill="#000000">TouchEventsDirective </text>
</g>
<!-- GalleryModalModule&#45;&gt;TouchEventsDirective  -->
<g id="edge8" class="edge">
<title>GalleryModalModule&#45;&gt;TouchEventsDirective </title>
<path fill="none" stroke="#000000" stroke-dasharray="5,2" d="M180.9739,-187.1061C180.9739,-206.3391 180.9739,-234 180.9739,-234 180.9739,-234 179.876,-234 179.876,-234"/>
<polygon fill="#000000" stroke="#000000" points="179.9958,-230.5001 169.9957,-234 179.9957,-237.5001 179.9958,-230.5001"/>
</g>
</g>
</svg>
